<svg xmlns="http://www.w3.org/2000/svg" viewBox="0 0 200 104" width="200" height="104"><path class="cls-2" d="M52.56,18.69v5.18a1.64,1.64,0,0,1-.82,1.49,1.57,1.57,0,0,1-.71.17,2.3,2.3,0,0,1-1.26-.44.5.5,0,0,1,.57-.83,1,1,0,0,0,.93.21.65.65,0,0,0,.29-.6V18.69a.5.5,0,0,1,.5-.5A.51.51,0,0,1,52.56,18.69Zm-2.5,9.51h-.13a3.38,3.38,0,0,1-3.69-3.08.46.46,0,0,0-.52-.47.49.49,0,0,0-.47.52,4.38,4.38,0,0,0,4.67,4h.15a.5.5,0,0,0,0-1Zm21.2,51a.51.51,0,0,1-.1.7,13.49,13.49,0,0,1-3.06,1.76,13.71,13.71,0,0,1-1.94.62c.13.84.44,2.78.82,5.17,0,0,0,0,0,0v0c.94,5.84,2.3,14.25,2.52,15.38a.5.5,0,0,1-.39.59H69a.5.5,0,0,1-.49-.4c-.23-1.13-1.53-9.2-2.46-15-.83,0-2.66.16-4.7.16a39.18,39.18,0,0,1-4.23-.2.5.5,0,0,1-.44-.55.51.51,0,0,1,.56-.44,56.6,56.6,0,0,0,8.65,0c-.33-2.08-.6-3.75-.73-4.56a21.47,21.47,0,0,1-3.82.33c-8.65,0-18.93-4.34-22-6.83-3.31,1-3.84,1.19-5.39,1a4,4,0,0,1-3.12-1.92c-1.42-1-2.05-1.65-2.17-2.42a4.5,4.5,0,0,1-1.6-1.74L25,70.25A22.5,22.5,0,0,1,24.84,73l4.77,6.93,9,.65-1.38-2a.5.5,0,1,1,.82-.58l2,2.82a.52.52,0,0,1,0,.54.5.5,0,0,1-.44.25h0l-9.89-.71c-.2.86-.68,3-1.27,5.65a24.87,24.87,0,0,0,8-.07.5.5,0,0,1,.59.39.49.49,0,0,1-.38.59,22.42,22.42,0,0,1-4.35.38,27.3,27.3,0,0,1-4.1-.31c-1.25,5.68-2.83,13.11-3.09,15.51a.51.51,0,0,1-.5.45h-.05a.49.49,0,0,1-.44-.55C24.6,99,28.31,82.61,28.8,80.48l-4.18-6.07a11.06,11.06,0,0,1-2.38,5.41,5.42,5.42,0,0,1-3.94,1.8h-.22A4.5,4.5,0,0,1,14,79.33c-2.38-4-.55-12.41.51-14.9L13.63,64a.5.5,0,0,1-.23-.61c.5-1.32.81-2.11,1.35-3.29L7.09,48.92a.47.47,0,0,1,0-.51.48.48,0,0,1,.44-.27h9.22a.52.52,0,0,1,.41.21l2.34,3.33A34,34,0,0,1,34.86,39.25a24.6,24.6,0,0,1,7.65-1.73c.19-.68.35-1.28.49-1.79-2.37-.19-6.83-.84-7.93-10.16C33.46,12.09,43.59,4.05,48.45,2.46a7.5,7.5,0,0,1,8.44,2.06,5.91,5.91,0,0,1,4.39,1.86c2.58,2.68,3.28,7.77,2.07,15.15A4.07,4.07,0,0,1,63.28,24c0,.92.3,7.66-.61,10.41-.7,2.11-3.2,2.87-5.72,2.87A13.67,13.67,0,0,1,54.27,37l.08,2.14a29.14,29.14,0,0,1,2.86.71.41.41,0,0,1,.24.08A29.06,29.06,0,0,1,72,49.92a29.33,29.33,0,0,1,2.36,3.85.51.51,0,0,1-.22.67.64.64,0,0,1-.23.05.49.49,0,0,1-.44-.27,26.86,26.86,0,0,0-2.27-3.69,28.08,28.08,0,0,0-13.87-9.59L48.72,49a.48.48,0,0,1-.34.14h-.05a.5.5,0,0,1-.35-.21l-7.37-10.2C36.44,39.4,27.39,42,20.08,52.54l4.3,6.08c.29-.31.56-.59.75-.76a2,2,0,0,1,2.16-.22,1.8,1.8,0,0,1,1,1.44,2.7,2.7,0,0,1,.49.12L28.84,53a.5.5,0,0,1,.5-.5h0a.5.5,0,0,1,.5.5l-.06,7.29a2.5,2.5,0,0,1,.06.63,1.64,1.64,0,0,1,.92.74,1.92,1.92,0,0,1,.09,1.75c.48,1.16.07,2.17-1.59,3.75h.33c3.27-.11,5.86-.2,9,1.6,2.58,1.5,18.71,6.75,24.22,3.85a3,3,0,0,0,1.54-1.71L64,71a.41.41,0,0,1-.16,0,.49.49,0,0,1-.3-.1.52.52,0,0,1-.2-.42l.55-14.85a.5.5,0,0,1,.5-.48h0a.5.5,0,0,1,.48.52L64.4,69.8l.36-.1a.23.23,0,0,1,.11,0c1.54-.46,3.15-.88,4.84-1.22a.5.5,0,0,1,.59.39.51.51,0,0,1-.39.59c-1.56.32-3.07.69-4.5,1.11a3.85,3.85,0,0,1-2.17,2.93C57.4,76.54,41,71.34,38.05,69.6S32.73,68,29.63,68.14l-1.52,0a8.3,8.3,0,0,1-2.06,1.33l1.55.5a.49.49,0,0,1,.33.35,3.4,3.4,0,0,0,1.49,1.57.5.5,0,0,1,.23.42c0,.37.23.87,1.9,2a.51.51,0,0,1,.21.34A3.06,3.06,0,0,0,34.11,76c1.34.21,1.76.08,5-.94l.16-.06a.5.5,0,0,1,.48.11C43.12,78,59,84.39,67.71,80.77a12.68,12.68,0,0,0,2.84-1.63A.51.51,0,0,1,71.26,79.23ZM56.21,40.6c-.75-.2-1.52-.38-2.3-.52a11.79,11.79,0,0,1-4.26.79,11.31,11.31,0,0,1-6.91-2.36c-.18,0-.52,0-1,.08l6.72,9.3Zm6.08-19c-.27-.46-.78-.61-1.51-.45a.5.5,0,0,1-.45-.13c-2.15-2-4.73-7.27-5.72-11.39-1.6,2.31-6,7.54-13.52,8.1a.48.48,0,0,1-.52-.35,1.26,1.26,0,0,0-1.35-.86.88.88,0,0,0-.79.65,5.34,5.34,0,0,0,1,4.55,1.22,1.22,0,0,0,1.19.54h.12a.5.5,0,0,1,.31.1.53.53,0,0,1,.19.4c0,.09-.08,9,5.81,10.49S57.94,26.07,58,26a.5.5,0,0,1,.63-.21,2.38,2.38,0,0,0,2.92-.65,4,4,0,0,0,.76-1.34.06.06,0,0,0,0,0A2.73,2.73,0,0,0,62.29,21.59ZM44.68,33.28c-.2.8-.58,2.24-1.21,4.54a10.51,10.51,0,0,0,9.88,1.4l-.23-6.39a8.61,8.61,0,0,1-4.67,1.58,6.77,6.77,0,0,1-1.64-.21A7,7,0,0,1,44.68,33.28Zm17.65-7.56,0,.06a3.34,3.34,0,0,1-3.65,1.06,21.79,21.79,0,0,1-4.55,5.28L54.23,36c2.41.54,6.69.53,7.49-1.87C62.34,32.22,62.37,28.1,62.33,25.72Zm-19.07,9c.33-1.23.48-1.84.55-2.13-3.07-2.72-3.51-7.69-3.56-9.35a2.42,2.42,0,0,1-1.58-.91,6.33,6.33,0,0,1-1.17-5.58,1.91,1.91,0,0,1,1.63-1.27,2.26,2.26,0,0,1,2.23,1.18c8.69-.84,13-8.54,13-8.62a.51.51,0,0,1,.94.16c.64,3.89,3.32,9.65,5.49,11.88a2.28,2.28,0,0,1,1.66.3c1.17-8.07-.38-11.7-1.92-13.32a4.86,4.86,0,0,0-3.86-1.56.52.52,0,0,1-.48-.21c-.1-.15-2.5-3.54-7.48-1.91-4.62,1.51-14.23,9.17-12.7,22C37.1,34.2,41.07,34.58,43.26,34.75ZM8.45,49.14,18.87,64.29c0-1.66.63-3.58,3.11-6.05a1.07,1.07,0,0,1,.71-.27l-6.23-8.83Zm6,14.16.9.49h0l3.1,1.72L15.41,61C15.08,61.78,14.82,62.43,14.49,63.3ZM24,69.58s0,0,0,0,0,0,0,0,0,0,0,0a.43.43,0,0,1,.1-.24s0,0,0,0a.49.49,0,0,1,.24-.15s0,0,0,0a7.8,7.8,0,0,0,3.19-1.74h0c2.88-2.46,2.59-3,2.26-3.7a.49.49,0,0,1,0-.47,1,1,0,0,0,.05-1,.67.67,0,0,0-.63-.34h0a.48.48,0,0,1-.2,0L29,61.73a.25.25,0,0,1-.1-.08h0s0,0,0,0a.31.31,0,0,1-.06-.13.24.24,0,0,1,0-.08s0,0,0-.07v-.89a.31.31,0,0,0-.06-.13,1.11,1.11,0,0,0-.88-.23.45.45,0,0,1-.39-.15.51.51,0,0,1-.14-.39.91.91,0,0,0-.46-1,1,1,0,0,0-1,.07c-.65.59-2.43,2.66-2.48,2.7v0l-.08.06-.07,0-.09,0a.29.29,0,0,1-.1,0l-.11,0h-.07a.45.45,0,0,1-.12-.06l-.05,0h0a.31.31,0,0,1-.07-.09l-.05-.06,0-.11a.24.24,0,0,0,0-.08.5.5,0,0,1,0-.12.2.2,0,0,1,0-.07.37.37,0,0,1,.07-.12s0,0,0-.05h0c.73-.82.83-1.33.68-1.51a.62.62,0,0,0-.6-.17c-3.15,3.16-2.89,5.21-2.64,7.2a12,12,0,0,1,.13,1.6.47.47,0,0,1-.1.3,32.64,32.64,0,0,0-3.45,5.66.5.5,0,0,1-.46.3.52.52,0,0,1-.46-.7,33.65,33.65,0,0,1,3.47-5.72c0-.21,0-.41,0-.62l-3.74-2.07c-1,2.31-2.69,10.23-.52,13.9a3.47,3.47,0,0,0,3.43,1.8,4.42,4.42,0,0,0,3.23-1.48C24.27,76.15,24,69.65,24,69.58Zm81.79-52.5-1,.32s1.1,3.26,1.44,4.34a1.51,1.51,0,0,1,0,1.27,1.16,1.16,0,0,1-.91.32.47.47,0,0,0-.52.47.5.5,0,0,0,.47.53h.13a2,2,0,0,0,1.62-.71,2.27,2.27,0,0,0,.19-2.18C106.89,20.35,105.79,17.08,105.79,17.08Zm-.71,9.73c-3.11-.25-3.38-2.6-3.39-2.72a.53.53,0,0,0-.54-.45.5.5,0,0,0-.46.54s.33,3.3,4.31,3.63h0a.5.5,0,0,0,.5-.46A.51.51,0,0,0,105.08,26.81ZM129,45.51c7.4,8.7,12.7,29,3.3,57.65h0v0a.67.67,0,0,1-.12.16s0,0-.06.07a.5.5,0,0,1-.29.09.4.4,0,0,1-.15,0h0l-8.86-3.41a30.35,30.35,0,0,1-1.27,3.17.5.5,0,0,1-.44.27.59.59,0,0,1-.23,0,.51.51,0,0,1-.22-.68A46.67,46.67,0,0,0,124,91a.72.72,0,0,1-.09-.2c-1.44-9.62-.72-36.88-.72-37.16a.5.5,0,0,1,.5-.48h0a.49.49,0,0,1,.48.51c0,.1-.1,4-.15,9.34,3.87,16.83,1,29.83-1,36.1l8.41,3.23c9-28,3.92-47.73-3.27-56.19a31.54,31.54,0,0,0-9.84-7.94l-1.19,5.49.42,12.56a4.49,4.49,0,0,1,1,.36.5.5,0,1,1-.47.89c-.08,0-2-1-2.82.43a2.13,2.13,0,0,0-.3.9,2,2,0,0,0,1.1,2.22,2.18,2.18,0,0,0,1.92-.05,2.09,2.09,0,0,0,1-2,.5.5,0,0,1,.5-.5.5.5,0,0,1,.5.5,2.92,2.92,0,0,1-3,3.22,3.44,3.44,0,0,1-1.33-.27,2.93,2.93,0,0,1-1.7-3.25,3.12,3.12,0,0,1,.43-1.31,2.53,2.53,0,0,1,2.1-1.26l-.35-10.79-1.75-.3.67,1.15a.5.5,0,0,1,0,.58L104,60c-.08,2-.83,22-.36,30.1.27,4.51.39,8.87.38,12.94a.5.5,0,0,1-.5.5h0a.5.5,0,0,1-.5-.5c0-4.06-.11-8.39-.37-12.88-.51-8.55.35-30.16.36-30.37h0a.33.33,0,0,1,0-.17l.9-2a.41.41,0,0,1-.12-.11L95.64,46.85a.5.5,0,0,1,0-.54l.75-1.4-1.73.29-.15,1.62a1.94,1.94,0,0,1,1.11,1,1.26,1.26,0,0,1-.11,1.11l-.81,1.6a.28.28,0,0,1,0,.09c1.3.9,4.75,4,4.24,11.78a2.19,2.19,0,0,1-.2,1,1.7,1.7,0,0,1-1.42,1.23,20.1,20.1,0,0,1-2.62,5.67l.31.22a2,2,0,0,0,2,.15,2,2,0,0,1,1.22-1.94,2.21,2.21,0,0,1,1.68-.15,1.53,1.53,0,0,1,.89.76,1.89,1.89,0,0,1-1.09,2.41,2.35,2.35,0,0,1-1,.25,1.89,1.89,0,0,1-.63-.1,1.59,1.59,0,0,1-.55-.32,2.68,2.68,0,0,1-1.26.32,3.44,3.44,0,0,1-1.74-.52,4.5,4.5,0,0,1-.45-.31,3.62,3.62,0,0,1-2.53,1.29,2.69,2.69,0,0,1-.39,0,9.17,9.17,0,0,1-1.1-.08,1.36,1.36,0,0,1-.39.22,2,2,0,0,1-.61.09,2.41,2.41,0,0,1-1.07-.26,1.91,1.91,0,0,1-1.07-2.43,1.57,1.57,0,0,1,.9-.75,2.26,2.26,0,0,1,1.68.17,2,2,0,0,1,1.19,2,4.72,4.72,0,0,0,.79,0,2.74,2.74,0,0,0,1.86-1,5.19,5.19,0,0,1-.72-1c-1.39-2.68-2.11-4.53-2.2-5.62h0a1.25,1.25,0,0,1-.82-.32,3.15,3.15,0,0,1-.65-2.51h0v0c0-6.51,3.48-9.57,4.67-10.42-.25-.54-.5-1.05-.58-1.19l0-.09a1.47,1.47,0,0,1-.09-1.23,1.49,1.49,0,0,1,.61-.67l.17-1.87-.12,0A.51.51,0,0,1,92.9,45l-1.53-6.79a31.78,31.78,0,0,0-9.84,7.94c-11.5,13.53-9.11,37.79-3,56.19l8.12-3.22c-2-6.27-4.86-19.28-1-36.11,0-5.34-.15-9.24-.16-9.34a.5.5,0,0,1,.49-.51h0a.48.48,0,0,1,.5.48c0,.28.72,27.54-.72,37.16a.4.4,0,0,1-.09.21,47,47,0,0,0,3.43,11.76.5.5,0,0,1-.22.68.59.59,0,0,1-.22,0,.5.5,0,0,1-.45-.27A32.4,32.4,0,0,1,87,100.07l-8.56,3.39h0a.41.41,0,0,1-.16,0,.47.47,0,0,1-.28-.09.24.24,0,0,1-.06-.08.3.3,0,0,1-.12-.15,0,0,0,0,0,0,0h0c-4.69-13.85-6.34-26.49-4.9-37.55s5.57-17.35,7.91-20.1a31.53,31.53,0,0,1,10.38-8.3L91,36.38a.5.5,0,0,1,.24-.54L95,33.72c-5.17-4.62-1.65-11.9-1-13.23a5.43,5.43,0,0,1-.24-3,.87.87,0,0,1-.08-.1,10.21,10.21,0,0,1-.4-4.64C93.55,10.68,95.93,4.37,100,2a6.12,6.12,0,0,1,5.4-.58c5.12-1,8.51,3.91,10.08,7a11.25,11.25,0,0,1,1.12,8.18,5.24,5.24,0,0,1-.58,5c0,.05-.1.09-.14.14.17.95,1,4.79,4.12,6.09a.46.46,0,0,1,.27.29.51.51,0,0,1,0,.4c-1.07,2.07-4,4.58-5.21,5.57l3.44,2.32a.51.51,0,0,1,.21.52l-.07.33A31.64,31.64,0,0,1,129,45.51ZM85.17,87.3c.43-5.21.53-12.65.53-19.22A70.19,70.19,0,0,0,85.17,87.3ZM89.3,71.58a.56.56,0,0,0,.31-.25c.17-.33-.12-.83-.62-1.09a1.41,1.41,0,0,0-.62-.15,1,1,0,0,0-.3,0,.56.56,0,0,0-.31.25c-.17.33.12.84.62,1.09A1.32,1.32,0,0,0,89.3,71.58ZM98,70.71a.54.54,0,0,0,.31.26,1.26,1.26,0,0,0,.92-.1c.51-.25.8-.75.63-1.08a.49.49,0,0,0-.31-.25.78.78,0,0,0-.31-.05,1.37,1.37,0,0,0-.61.15C98.15,69.89,97.86,70.38,98,70.71ZM94,51.34c-1.15.86-4.12,3.66-4.11,9.5h0v.1c-.06,1.27.23,1.63.32,1.71a.3.3,0,0,0,.27.06.52.52,0,0,0,.41-.23c.16-.2.38-.74.11-2a.5.5,0,0,1,.39-.59.48.48,0,0,1,.59.38,3.47,3.47,0,0,1-.32,2.88,1.29,1.29,0,0,1-.28.25c0,.2-.06,1.34,2.11,5.5a4.51,4.51,0,0,0,.48.72,19.68,19.68,0,0,0,2.38-5.19,1.38,1.38,0,0,1-.62-.57,2.27,2.27,0,0,1-.09-1.77.5.5,0,0,1,1,.26,1.44,1.44,0,0,0,0,1,.58.58,0,0,0,.41.25l.12,0a.38.38,0,0,0,.33-.06,1.8,1.8,0,0,0,.49-1,.66.66,0,0,1,0-.14C98.42,54.73,94.92,52,94,51.34Zm.32-3.49a.45.45,0,0,1-.24.19.62.62,0,0,0-.32.26.51.51,0,0,0,0,.37,6.38,6.38,0,0,1,.35.66l.45-.89c.09-.18.07-.25.06-.28A.77.77,0,0,0,94.29,47.85Zm20.65-25.51a1.88,1.88,0,0,1-1,.1c-.5,2-1.59,5.9-4,8.23l4.13,2.78a26.08,26.08,0,0,0,4.93-5C116.27,27,115.26,23.78,114.94,22.34Zm-13.63,8.92c-.52,1-1.59,3.73-.78,9l4.17,4.79,5.16-5.65a19.94,19.94,0,0,0-.93-7.91,5.85,5.85,0,0,1-3,1.05l-.53,0A6.57,6.57,0,0,1,101.31,31.26Zm-.43,11a55.36,55.36,0,0,0,4.46,12.3,41.22,41.22,0,0,0,4.36-13.44l-4.64,5.09a.51.51,0,0,1-.37.16h0a.47.47,0,0,1-.37-.17Zm14.74-25.33c-.08-.11-.35-.43-1.17,0a.5.5,0,0,1-.49,0,.52.52,0,0,1-.24-.44c.06-1.92-2.48-4.33-4.16-5.92a12.44,12.44,0,0,1-1.51-1.57.47.47,0,0,1-.06-.15,1.2,1.2,0,0,0-.62-.81,1.93,1.93,0,0,0-1.61.31.49.49,0,0,1-.62-.1c-.36-.4-.89-.86-1.32-.76s-.86.88-.95,1.15a27.26,27.26,0,0,1-2.8,5.27,14.69,14.69,0,0,1-3.73,3.5.5.5,0,0,1-.54,0c-.56-.37-.74-.19-.8-.12-.46.48-.47,2.08,0,3.19v0a2.59,2.59,0,0,0,.26.46,1,1,0,0,0,1.36.39.54.54,0,0,1,.22-.05.54.54,0,0,1,.21.05.51.51,0,0,1,.27.32c1,3.82,2.24,6.83,4.11,8.52l0,0,0,.07a5.69,5.69,0,0,0,4.3,1.37c4.93-.3,6.67-7.52,7.24-9.89a.47.47,0,0,1,.27-.33.47.47,0,0,1,.43,0,1,1,0,0,0,1.38-.42C116,19.86,116.26,17.67,115.62,16.89Zm-21.2-.51a1.43,1.43,0,0,1,1.64-.06,14.38,14.38,0,0,0,3.21-3.08,27.34,27.34,0,0,0,2.66-5c0-.13.53-1.54,1.68-1.79a2.23,2.23,0,0,1,2,.79A2.53,2.53,0,0,1,107.75,7a2.09,2.09,0,0,1,1.18,1.38,15.19,15.19,0,0,0,1.32,1.35c1.63,1.54,4,3.79,4.41,6a1.78,1.78,0,0,1,1.07,0,10.69,10.69,0,0,0-1.19-7C113.09,6,110,1.36,105.42,2.38a.45.45,0,0,1-.28,0,5.18,5.18,0,0,0-4.68.45C96.79,5,94.52,11,94.27,12.91A10.2,10.2,0,0,0,94.42,16.38ZM95.88,33.2l4.48-2.53a.44.44,0,0,1,.15-.05l0,0c-1.92-1.91-3.08-5-4-8.22a1.93,1.93,0,0,1-2-.8C93.57,23.65,91.36,29.48,95.88,33.2Zm8.88,22.41c-6.6-13.37-5.93-20.44-4.91-23.51L92,36.53l1.75,7.79,3.4-.56a.48.48,0,0,1,.49.2.49.49,0,0,1,0,.52l-1.07,2,7.75,10ZM116,44.32,117.59,37l-7.43-5c3,10.23-3.54,22.33-4.4,23.85l-.43,1,8.77-10.38-1-1.78a.49.49,0,0,1,0-.53.48.48,0,0,1,.49-.21Zm8.53,42.95A69.92,69.92,0,0,0,124,68.08C124,74.64,124.12,82.06,124.54,87.27Zm36-70.55a.5.5,0,0,0-1,.25l1,4-1.38.54a.51.51,0,0,0-.28.65.51.51,0,0,0,.47.32.39.39,0,0,0,.18,0l1.78-.7a.48.48,0,0,0,.3-.59Zm-1.13,9.15a3.67,3.67,0,0,1-2.75-.93A2.86,2.86,0,0,1,156,23a.5.5,0,0,0-.48-.52A.46.46,0,0,0,155,23a3.85,3.85,0,0,0,1,2.63,4.6,4.6,0,0,0,3.48,1.25.5.5,0,0,0,.5-.5A.51.51,0,0,0,159.44,25.87ZM193,64.45a.5.5,0,0,1-.4.54l-1.24.24c.49,2.48,2.08,13.45-6.11,18.64a20,20,0,0,1-6.38,2.59c.31,3.22,1.58,11.6,2.33,16.46a.49.49,0,0,1-.42.57h-.07a.51.51,0,0,1-.5-.42c-.59-3.81-1.26-8.26-1.75-11.78A44.05,44.05,0,0,1,171,92l-1.37,0a.5.5,0,0,1-.48-.52.46.46,0,0,1,.53-.47,41.41,41.41,0,0,0,8.66-.68c-.2-1.47-.36-2.73-.45-3.64a29.14,29.14,0,0,1-5.47.49c-6.51,0-13.24-1.77-18.6-3.46a21.29,21.29,0,0,1-7.3,1.36,22.4,22.4,0,0,1-4.69-.53c-.06.76-.19,2.24-.39,4.1a56.14,56.14,0,0,0,12.4,1.6h0a.5.5,0,0,1,.5.5.49.49,0,0,1-.49.5h-.37a59.94,59.94,0,0,1-12.15-1.6,108.79,108.79,0,0,1-2.2,13.5.5.5,0,0,1-.48.38l-.13,0a.5.5,0,0,1-.36-.6c1.63-6.36,2.51-16.45,2.68-18.59-.51-.13-1-.27-1.57-.43a.5.5,0,0,1,.3-1c8.47,2.64,13.56.23,19.45-2.55a50.51,50.51,0,0,1,13-4.61l1.42-.23a42.51,42.51,0,0,0,4.47-.89l.09-2.28a137.23,137.23,0,0,0-18.64,1.08,91.25,91.25,0,0,1-9.54.72h-.71a17.88,17.88,0,0,1-7-1.3l-.07,0a5.3,5.3,0,0,1-2.28-1.7.51.51,0,0,1,.18-.69.5.5,0,0,1,.68.17,3.9,3.9,0,0,0,1.12.93l-.18-3.89-2.14-.38a.5.5,0,1,1,.17-1l1.93.34-.57-13a.49.49,0,0,1,.47-.52.46.46,0,0,1,.52.48L142.68,72a17.35,17.35,0,0,0,6.39,1.11,77.74,77.74,0,0,0,10.12-.71A139.21,139.21,0,0,1,178,71.34l.78-19.14a.5.5,0,0,1,.52-.48.51.51,0,0,1,.48.52l-.58,14.36,11.47-2.25h0l1.3-.26c-.26-2.28-1.72-12.8-6.86-19.23-4.88-6.11-11.92-9-15.7-10.51l-1.49-.62-7.17,10a.5.5,0,0,1-.79,0l-8.2-10c-.47.21-1.06.44-1.72.7-3.91,1.54-11.19,4.41-16,10.44-.32.4-.63.82-.92,1.25a.5.5,0,0,1-.83-.56c.31-.45.63-.89,1-1.31,5-6.24,12.43-9.18,16.43-10.75.81-.33,1.52-.61,2-.84a.51.51,0,0,1,.6.14l.24.29.74-4.58A16.48,16.48,0,0,1,151,22.38a5.37,5.37,0,0,1-3.6-3.4,4.64,4.64,0,0,1,.22-4,2.54,2.54,0,0,1,2.46-1c-.25-3.12-.34-4.34-.38-4.79a4,4,0,0,1-1.62-2.11,3.11,3.11,0,0,1,.43-2.44,4.15,4.15,0,0,1,1.07-1,7.77,7.77,0,0,0,1.68-1.48A4.35,4.35,0,0,1,156.65,1a3.81,3.81,0,0,0,3.5.14c1-.34,3.23-.7,4.71.35a3.8,3.8,0,0,1,1.44,3.16A3.83,3.83,0,0,0,168,5.3h0a1.6,1.6,0,0,1,1.17.54c.76.81.93,2.4.52,4.7-.14,1.21-.3,2.42-.44,3.52a2.52,2.52,0,0,1,2.39,1,4.49,4.49,0,0,1,.2,3.87,5.51,5.51,0,0,1-3.67,3.47,16.2,16.2,0,0,1-1.95,5.52c-.12.2-.25.37-.38.56l1.41,4.47.07-.11a.51.51,0,0,1,.62-.16c.47.22,1.09.47,1.82.77,3.87,1.58,11.06,4.5,16.11,10.82C191.82,51.68,193,63.94,193,64.45ZM167.62,18.57c0-.33-.3-6-1.2-8.31a13,13,0,0,0-1.58-3c-1.18.71-5,2.54-11.77,1.93-1.22,4.63-1.65,6.47-1.65,9.35,0,.28.64,6.88,2.75,9.5s3.25,3.23,5.28,3.28c1.55.07,3.63-.38,5.93-4C167.37,24.23,167.62,18.73,167.62,18.57Zm1.49-3.47c-.26,1.94-.47,3.37-.49,3.53s-.06,1.21-.26,2.62a4.52,4.52,0,0,0,2.54-2.68,3.62,3.62,0,0,0-.06-2.94A1.6,1.6,0,0,0,169.11,15.1ZM150.4,8.56a.49.49,0,0,1,.26.4s0,.45.35,4.4c.28-1.29.67-2.8,1.2-4.82a.49.49,0,0,1,.54-.37c8.07.84,11.85-1.93,11.89-2a.54.54,0,0,1,.3-.1.47.47,0,0,1,.35.15,11,11,0,0,1,2.06,3.64,20.31,20.31,0,0,1,.89,4.2c.15-1.15.31-2.43.46-3.7.46-2.59.05-3.52-.24-3.85A.64.64,0,0,0,168,6.3h-.11a4.51,4.51,0,0,1-2.47-1.15.53.53,0,0,1-.12-.32,2.92,2.92,0,0,0-1-2.55c-1.19-.85-3.14-.45-3.79-.23a4.89,4.89,0,0,1-4.31-.19A3.38,3.38,0,0,0,152,2.93a9.05,9.05,0,0,1-1.86,1.65,3.25,3.25,0,0,0-.81.69,2.12,2.12,0,0,0-.3,1.64A3.17,3.17,0,0,0,150.4,8.56Zm.37,12.68c-.25-1.44-.34-2.51-.35-2.62h0c-.11-1.36-.2-2.52-.28-3.52a1.6,1.6,0,0,0-1.73.53,3.63,3.63,0,0,0-.09,3A4.39,4.39,0,0,0,150.77,21.24Zm15.75,12.69-1.42-4.5a6.83,6.83,0,0,1-5.49,2.91h-.18c-2.21-.05-3.49-.69-5.33-2.8l-.74,4.57,6.94,8.46Zm23.86,31.49-11.25,2.2-.27,6.7a11.89,11.89,0,0,0,2.42-1.1.5.5,0,0,1,.69.15.51.51,0,0,1-.16.69c-2.38,1.5-5.64,2-8.27,2.43l-1.4.23a49.37,49.37,0,0,0-12.7,4.53c-1.4.66-2.76,1.29-4.12,1.86,8.86,2.7,21,5.26,29.4-.09C192.39,78.16,190.84,67.72,190.38,65.42Zm-15.27-15a.5.5,0,0,0-.5.5v3.49a69.47,69.47,0,0,1-7.49-.14.51.51,0,0,0-.55.45.5.5,0,0,0,.46.54s2.25.19,5.27.19l2.31,0v.42a.5.5,0,0,0,.5.5.5.5,0,0,0,.5-.5v-.47c.56,0,1.12-.06,1.69-.11a.5.5,0,1,0-.08-1l-1.61.1V50.93A.5.5,0,0,0,175.11,50.43Z" fill="#00B0CA"/></svg>