<svg width="112" height="25" viewBox="0 0 112 25" fill="none" xmlns="http://www.w3.org/2000/svg">
<path fill-rule="evenodd" clip-rule="evenodd" d="M63.6465 14.3397C61.0569 14.3397 58.9597 16.3607 58.9597 18.8554V23.353H68.313V14.3397H63.6465ZM44.8672 9.82502V0.8125H54.2198V5.31357C54.2198 7.80549 52.1241 9.82502 49.5388 9.82502H44.8672Z" fill="#C2DF0A"/>
<path fill-rule="evenodd" clip-rule="evenodd" d="M12.7962 17.7272C17.1812 17.7272 18.6531 14.1644 18.6531 11.9815C18.6531 9.26911 16.7118 6.27495 12.7587 6.27495C8.75531 6.27495 6.99005 9.51015 6.99005 12.0657C6.99005 14.1644 8.58772 17.7272 12.7962 17.7272ZM25.6385 23.2327H18.6531V20.7986H18.5684C17.3897 22.9865 14.4864 24 11.7465 24C4.33727 24 0 18.4136 0 11.9815C0 4.61289 5.51799 0 11.7465 0C15.5773 0 17.7273 1.78347 18.5684 3.16083H18.6531V0.770001H25.6385V23.2327Z" fill="#00B0CA"/>
<path fill-rule="evenodd" clip-rule="evenodd" d="M99.1589 17.7272C103.534 17.7272 105.009 14.1644 105.009 11.9815C105.009 9.26911 103.072 6.27495 99.1187 6.27495C95.1164 6.27495 93.3451 9.51015 93.3451 12.0657C93.3451 14.1644 94.9453 17.7272 99.1589 17.7272ZM112 23.2327H105.009V20.7986H104.922C103.748 22.9865 100.84 24 98.1055 24C90.6972 24 86.3613 18.4136 86.3613 11.9815C86.3613 4.61289 91.8715 0 98.1055 0C101.938 0 104.082 1.78347 104.922 3.16083H105.009V0.770001H112V23.2327Z" fill="#00B0CA"/>
<path fill-rule="evenodd" clip-rule="evenodd" d="M49.6489 14.3103H44.8706C44.4831 16.9368 42.7288 17.7347 40.9472 17.7347C37.1897 17.7347 37.1897 14.7774 37.1897 13.2376V0.8125H30.1924V14.2518C30.1924 17.325 30.436 18.9454 32.2964 21.1713C34.3633 23.6774 37.7363 24.0017 39.1684 24.0017C40.8326 24.0017 43.4427 23.7883 44.952 21.4141V23.2994H54.3129V18.6591C54.3129 16.2478 52.1808 14.3103 49.6489 14.3103Z" fill="#00B0CA"/>
<path fill-rule="evenodd" clip-rule="evenodd" d="M63.7034 9.85692H68.4772C68.8629 7.23067 70.619 6.43712 72.4034 6.43712C76.1601 6.43712 76.1601 9.39466 76.1601 10.9286V23.3533H83.1566V9.91836C83.1566 6.84376 82.9115 5.2206 81.053 2.99468C78.9827 0.487756 75.6101 0.164062 74.1754 0.164062C72.5181 0.164062 69.9046 0.378134 68.3943 2.75587V0.865776H59.0361V5.50921C59.0361 7.92009 61.1693 9.86048 63.7034 9.85692Z" fill="#00B0CA"/>
</svg>
